<?xml version="1.0" standalone="no"?>
<!DOCTYPE svg PUBLIC "-//W3C//DTD SVG 20010904//EN"
 "http://www.w3.org/TR/2001/REC-SVG-20010904/DTD/svg10.dtd">
<svg version="1.0" xmlns="http://www.w3.org/2000/svg"
     width="50" height="50"
     viewBox="0 0 512.000000 512.000000"
 preserveAspectRatio="xMidYMid meet">

<g transform="translate(0.000000,512.000000) scale(0.100000,-0.100000)"
fill="#000000" stroke="none">
<path d="M600 4674 c-144 -39 -247 -144 -285 -290 -14 -54 -15 -202 -13 -1260
3 -1191 3 -1199 24 -1250 47 -114 122 -190 234 -236 l55 -23 875 -5 c481 -3
863 -8 848 -13 -15 -4 -44 -21 -63 -39 -103 -90 -112 -251 -20 -343 36 -37 58
-47 195 -92 103 -33 185 -67 244 -101 119 -68 286 -138 399 -167 l92 -23 6
-49 c9 -73 26 -98 151 -220 92 -89 123 -114 158 -123 48 -13 107 -7 150 15 15
8 176 167 358 353 356 365 363 375 347 461 -11 58 -28 81 -153 203 -87 87
-128 120 -153 125 -20 5 63 10 211 13 223 5 250 8 300 28 111 45 187 122 234
236 21 51 21 59 24 1250 3 1328 6 1265 -62 1376 -42 68 -116 131 -193 161
l-58 24 -1925 2 c-1671 2 -1932 0 -1980 -13z m105 -1524 l0 -1375 -37 2 c-70
4 -142 55 -181 128 l-22 40 0 1205 c0 1157 1 1206 19 1240 43 81 134 143 201
137 20 -2 20 -9 20 -1377z m3545 0 l0 -1380 -174 0 -173 0 -44 67 c-62 98
-598 627 -676 668 -78 41 -163 42 -244 2 -54 -26 -58 -26 -92 -12 -47 20 -130
19 -170 -1 -18 -9 -56 -39 -85 -67 -47 -47 -57 -52 -100 -53 -55 -1 -97 -21
-153 -71 l-40 -36 -77 74 c-174 170 -211 191 -293 169 -48 -13 -139 -93 -163
-145 -23 -48 -20 -113 7 -155 12 -20 108 -116 212 -214 105 -99 201 -190 215
-203 l25 -23 -678 0 -677 0 0 1380 0 1380 1690 0 1690 0 0 -1380z m274 1354
c44 -23 84 -63 109 -109 l22 -40 0 -1205 0 -1205 -22 -40 c-38 -72 -103 -118
-182 -131 l-41 -7 0 1383 0 1383 41 -7 c23 -4 55 -14 73 -22z m-1421 -2138
c18 -8 163 -144 324 -303 315 -312 321 -320 372 -483 l20 -63 -261 -269 c-143
-147 -267 -268 -275 -268 -34 0 -172 34 -251 61 -48 17 -154 66 -237 109 -95
49 -197 93 -280 120 -71 23 -138 49 -147 57 -25 22 -22 67 6 99 l23 28 119
-21 c124 -22 155 -19 180 15 16 20 18 56 4 81 -5 10 -170 171 -367 356 -197
186 -374 353 -393 372 l-35 33 35 35 35 34 195 -187 c505 -483 601 -572 627
-578 54 -14 104 41 90 98 -4 16 -92 106 -226 233 -121 114 -222 214 -226 223
-3 9 5 26 21 43 23 24 30 26 48 17 12 -6 86 -74 166 -152 254 -248 286 -276
313 -276 40 0 80 41 80 81 0 30 -17 51 -198 227 l-198 193 33 34 c20 21 44 35
58 35 17 0 63 -37 158 -127 74 -71 146 -132 159 -137 54 -21 115 31 101 87 -3
14 -43 62 -89 107 -67 65 -79 82 -67 90 21 14 45 12 83 -4z m998 -1013 c55
-53 99 -103 99 -111 0 -15 -603 -631 -633 -646 -15 -8 -36 8 -118 90 -54 54
-99 103 -99 108 0 13 85 102 384 404 138 138 254 252 259 252 6 0 54 -44 108
-97z"/>
<path d="M2450 4212 c-124 -32 -234 -120 -284 -226 -51 -107 -58 -274 -15
-317 25 -25 80 -25 110 0 22 17 24 26 21 87 -4 98 18 164 76 223 66 68 140 94
247 89 96 -5 157 -30 213 -86 50 -50 72 -114 72 -211 0 -146 -34 -205 -176
-311 -131 -96 -150 -114 -196 -184 -47 -73 -77 -168 -79 -249 -2 -54 1 -63 25
-84 34 -29 68 -29 99 0 19 17 27 39 36 95 19 125 57 179 190 277 209 154 269
266 259 487 -4 91 -9 114 -36 171 -94 201 -327 300 -562 239z"/>
<path d="M2493 2780 c-39 -16 -56 -54 -51 -117 6 -65 30 -93 82 -93 52 0 76
34 76 106 0 50 -4 64 -22 81 -29 26 -57 34 -85 23z"/>
</g>
</svg>
